<svg viewBox="0 0 330 200" xmlns="http://www.w3.org/2000/svg"><g><g><g><g><g><line x1="60" y1="178" x2="55" y2="178" style="visibility: inherit;" fill="rgb(0, 0, 0)" stroke="rgb(204, 204, 204)" stroke-width="1px"></line><line x1="60" y1="164.3076923076923" x2="55" y2="164.3076923076923" style="visibility: inherit;" fill="rgb(0, 0, 0)" stroke="rgb(204, 204, 204)" stroke-width="1px"></line><line x1="60" y1="150.61538461538458" x2="55" y2="150.61538461538458" style="visibility: inherit;" fill="rgb(0, 0, 0)" stroke="rgb(204, 204, 204)" stroke-width="1px"></line><line x1="60" y1="136.92307692307693" x2="55" y2="136.92307692307693" style="visibility: inherit;" fill="rgb(0, 0, 0)" stroke="rgb(204, 204, 204)" stroke-width="1px"></line><line x1="60" y1="123.23076923076923" x2="55" y2="123.23076923076923" style="visibility: inherit;" fill="rgb(0, 0, 0)" stroke="rgb(204, 204, 204)" stroke-width="1px"></line><line x1="60" y1="109.53846153846152" x2="55" y2="109.53846153846152" style="visibility: inherit;" fill="rgb(0, 0, 0)" stroke="rgb(204, 204, 204)" stroke-width="1px"></line><line x1="60" y1="95.84615384615385" x2="55" y2="95.84615384615385" style="visibility: inherit;" fill="rgb(0, 0, 0)" stroke="rgb(204, 204, 204)" stroke-width="1px"></line><line x1="60" y1="82.15384615384613" x2="55" y2="82.15384615384613" style="visibility: inherit;" fill="rgb(0, 0, 0)" stroke="rgb(204, 204, 204)" stroke-width="1px"></line><line x1="60" y1="68.46153846153844" x2="55" y2="68.46153846153844" style="visibility: inherit;" fill="rgb(0, 0, 0)" stroke="rgb(204, 204, 204)" stroke-width="1px"></line><line x1="60" y1="54.769230769230774" x2="55" y2="54.769230769230774" style="visibility: inherit;" fill="rgb(0, 0, 0)" stroke="rgb(204, 204, 204)" stroke-width="1px"></line><line x1="60" y1="41.076923076923066" x2="55" y2="41.076923076923066" style="visibility: inherit;" fill="rgb(0, 0, 0)" stroke="rgb(204, 204, 204)" stroke-width="1px"></line><line x1="60" y1="27.38461538461536" x2="55" y2="27.38461538461536" style="visibility: inherit;" fill="rgb(0, 0, 0)" stroke="rgb(204, 204, 204)" stroke-width="1px"></line><line x1="60" y1="13.692307692307708" x2="55" y2="13.692307692307708" style="visibility: inherit;" fill="rgb(0, 0, 0)" stroke="rgb(204, 204, 204)" stroke-width="1px"></line><line x1="60" y1="0" x2="55" y2="0" style="visibility: inherit;" fill="rgb(0, 0, 0)" stroke="rgb(204, 204, 204)" stroke-width="1px"></line></g><g transform="translate(50, 0)"><text x="0" y="178" dx="0em" dy="0.3em" style="text-anchor: end; visibility: hidden; font-family: &quot;Helvetica Neue&quot;, sans-serif; font-size: 12px; font-weight: 200;" fill="rgb(50, 49, 63)" stroke="none" stroke-width="1px">0.06</text><text x="0" y="164.3076923076923" dx="0em" dy="0.3em" style="text-anchor: end; visibility: inherit; font-family: &quot;Helvetica Neue&quot;, sans-serif; font-size: 12px; font-weight: 200;" fill="rgb(50, 49, 63)" stroke="none" stroke-width="1px">0.065</text><text x="0" y="150.61538461538458" dx="0em" dy="0.3em" style="text-anchor: end; visibility: hidden; font-family: &quot;Helvetica Neue&quot;, sans-serif; font-size: 12px; font-weight: 200;" fill="rgb(50, 49, 63)" stroke="none" stroke-width="1px">0.07</text><text x="0" y="136.92307692307693" dx="0em" dy="0.3em" style="text-anchor: end; visibility: inherit; font-family: &quot;Helvetica Neue&quot;, sans-serif; font-size: 12px; font-weight: 200;" fill="rgb(50, 49, 63)" stroke="none" stroke-width="1px">0.075</text><text x="0" y="123.23076923076923" dx="0em" dy="0.3em" style="text-anchor: end; visibility: hidden; font-family: &quot;Helvetica Neue&quot;, sans-serif; font-size: 12px; font-weight: 200;" fill="rgb(50, 49, 63)" stroke="none" stroke-width="1px">0.08</text><text x="0" y="109.53846153846152" dx="0em" dy="0.3em" style="text-anchor: end; visibility: inherit; font-family: &quot;Helvetica Neue&quot;, sans-serif; font-size: 12px; font-weight: 200;" fill="rgb(50, 49, 63)" stroke="none" stroke-width="1px">0.085</text><text x="0" y="95.84615384615385" dx="0em" dy="0.3em" style="text-anchor: end; visibility: hidden; font-family: &quot;Helvetica Neue&quot;, sans-serif; font-size: 12px; font-weight: 200;" fill="rgb(50, 49, 63)" stroke="none" stroke-width="1px">0.09</text><text x="0" y="82.15384615384613" dx="0em" dy="0.3em" style="text-anchor: end; visibility: inherit; font-family: &quot;Helvetica Neue&quot;, sans-serif; font-size: 12px; font-weight: 200;" fill="rgb(50, 49, 63)" stroke="none" stroke-width="1px">0.095</text><text x="0" y="68.46153846153844" dx="0em" dy="0.3em" style="text-anchor: end; visibility: hidden; font-family: &quot;Helvetica Neue&quot;, sans-serif; font-size: 12px; font-weight: 200;" fill="rgb(50, 49, 63)" stroke="none" stroke-width="1px">0.1</text><text x="0" y="54.769230769230774" dx="0em" dy="0.3em" style="text-anchor: end; visibility: inherit; font-family: &quot;Helvetica Neue&quot;, sans-serif; font-size: 12px; font-weight: 200;" fill="rgb(50, 49, 63)" stroke="none" stroke-width="1px">0.105</text><text x="0" y="41.076923076923066" dx="0em" dy="0.3em" style="text-anchor: end; visibility: hidden; font-family: &quot;Helvetica Neue&quot;, sans-serif; font-size: 12px; font-weight: 200;" fill="rgb(50, 49, 63)" stroke="none" stroke-width="1px">0.11</text><text x="0" y="27.38461538461536" dx="0em" dy="0.3em" style="text-anchor: end; visibility: inherit; font-family: &quot;Helvetica Neue&quot;, sans-serif; font-size: 12px; font-weight: 200;" fill="rgb(50, 49, 63)" stroke="none" stroke-width="1px">0.115</text><text x="0" y="13.692307692307708" dx="0em" dy="0.3em" style="text-anchor: end; visibility: hidden; font-family: &quot;Helvetica Neue&quot;, sans-serif; font-size: 12px; font-weight: 200;" fill="rgb(50, 49, 63)" stroke="none" stroke-width="1px">0.12</text><text x="0" y="0" dx="0em" dy="0.3em" style="text-anchor: end; visibility: hidden; font-family: &quot;Helvetica Neue&quot;, sans-serif; font-size: 12px; font-weight: 200;" fill="rgb(50, 49, 63)" stroke="none" stroke-width="1px">0.125</text></g><line x1="60" y1="0" x2="60" y2="178" fill="rgb(0, 0, 0)" stroke="rgb(204, 204, 204)" stroke-width="1px"></line></g></g><g transform="translate(60, 0)" clip-path="url(#clip_0)"><clipPath id="clip_0"><rect width="270" height="178"></rect></clipPath><g><g><g><line x1="0" y1="0" x2="0" y2="178" fill="rgb(0, 0, 0)" stroke="rgb(60, 60, 60)" stroke-width="1px" opacity="0.25"></line><line x1="33.75" y1="0" x2="33.75" y2="178" fill="rgb(0, 0, 0)" stroke="rgb(60, 60, 60)" stroke-width="1px" opacity="0.25"></line><line x1="67.5" y1="0" x2="67.5" y2="178" fill="rgb(0, 0, 0)" stroke="rgb(60, 60, 60)" stroke-width="1px" opacity="0.25"></line><line x1="101.25" y1="0" x2="101.25" y2="178" fill="rgb(0, 0, 0)" stroke="rgb(60, 60, 60)" stroke-width="1px" opacity="0.25"></line><line x1="135" y1="0" x2="135" y2="178" fill="rgb(0, 0, 0)" stroke="rgb(60, 60, 60)" stroke-width="1px" opacity="0.25"></line><line x1="168.75" y1="0" x2="168.75" y2="178" fill="rgb(0, 0, 0)" stroke="rgb(60, 60, 60)" stroke-width="1px" opacity="0.25"></line><line x1="202.5" y1="0" x2="202.5" y2="178" fill="rgb(0, 0, 0)" stroke="rgb(60, 60, 60)" stroke-width="1px" opacity="0.25"></line><line x1="236.25" y1="0" x2="236.25" y2="178" fill="rgb(0, 0, 0)" stroke="rgb(60, 60, 60)" stroke-width="1px" opacity="0.25"></line><line x1="270" y1="0" x2="270" y2="178" fill="rgb(0, 0, 0)" stroke="rgb(60, 60, 60)" stroke-width="1px" opacity="0.25"></line></g><g><line x1="0" y1="178" x2="270" y2="178" fill="rgb(0, 0, 0)" stroke="rgb(60, 60, 60)" stroke-width="1px" opacity="0.25"></line><line x1="0" y1="164.3076923076923" x2="270" y2="164.3076923076923" fill="rgb(0, 0, 0)" stroke="rgb(60, 60, 60)" stroke-width="1px" opacity="0.25"></line><line x1="0" y1="150.61538461538458" x2="270" y2="150.61538461538458" fill="rgb(0, 0, 0)" stroke="rgb(60, 60, 60)" stroke-width="1px" opacity="0.25"></line><line x1="0" y1="136.92307692307693" x2="270" y2="136.92307692307693" fill="rgb(0, 0, 0)" stroke="rgb(60, 60, 60)" stroke-width="1px" opacity="0.25"></line><line x1="0" y1="123.23076923076923" x2="270" y2="123.23076923076923" fill="rgb(0, 0, 0)" stroke="rgb(60, 60, 60)" stroke-width="1px" opacity="0.25"></line><line x1="0" y1="109.53846153846152" x2="270" y2="109.53846153846152" fill="rgb(0, 0, 0)" stroke="rgb(60, 60, 60)" stroke-width="1px" opacity="0.25"></line><line x1="0" y1="95.84615384615385" x2="270" y2="95.84615384615385" fill="rgb(0, 0, 0)" stroke="rgb(60, 60, 60)" stroke-width="1px" opacity="0.25"></line><line x1="0" y1="82.15384615384613" x2="270" y2="82.15384615384613" fill="rgb(0, 0, 0)" stroke="rgb(60, 60, 60)" stroke-width="1px" opacity="0.25"></line><line x1="0" y1="68.46153846153844" x2="270" y2="68.46153846153844" fill="rgb(0, 0, 0)" stroke="rgb(60, 60, 60)" stroke-width="1px" opacity="0.25"></line><line x1="0" y1="54.769230769230774" x2="270" y2="54.769230769230774" fill="rgb(0, 0, 0)" stroke="rgb(60, 60, 60)" stroke-width="1px" opacity="0.25"></line><line x1="0" y1="41.076923076923066" x2="270" y2="41.076923076923066" fill="rgb(0, 0, 0)" stroke="rgb(60, 60, 60)" stroke-width="1px" opacity="0.25"></line><line x1="0" y1="27.38461538461536" x2="270" y2="27.38461538461536" fill="rgb(0, 0, 0)" stroke="rgb(60, 60, 60)" stroke-width="1px" opacity="0.25"></line><line x1="0" y1="13.692307692307708" x2="270" y2="13.692307692307708" fill="rgb(0, 0, 0)" stroke="rgb(60, 60, 60)" stroke-width="1px" opacity="0.25"></line><line x1="0" y1="0" x2="270" y2="0" fill="rgb(0, 0, 0)" stroke="rgb(60, 60, 60)" stroke-width="1px" opacity="0.25"></line></g></g></g><g><g><line x1="0" y1="342.30769230769226" x2="270" y2="342.30769230769226" fill="rgb(0, 0, 0)" stroke="rgb(153, 153, 153)" stroke-width="1.5px"></line></g></g><g><g><line x1="33.75" y1="0" x2="33.75" y2="178" fill="rgb(0, 0, 0)" stroke="rgb(153, 153, 153)" stroke-width="1.5px"></line></g></g><g><g><g><g><g><path stroke="rgb(204, 51, 17)" stroke-width="2px" d="M44.955000000000005,56.62278234958649L56.16,69.68636747365524L67.365,75.65652796040754L78.57,77.31420537654652L89.775,69.59948501600417L100.98,91.43199072187906L112.18499999999999,105.63584624596959L123.39,98.65107646116145L134.595,105.98400146517494L145.8,119.03488820470528L157.005,119.6083633244283L168.21,123.33844298470679L179.415,132.54271082157555L190.61999999999998,139.0879233317553L201.82500000000002,147.27895256734604L213.03,149.33911053472457L224.235,147.61734486592474L235.44,153.58884249390022L246.64499999999998,156.5686413245685L257.84999999999997,156.5300681754709" style="fill: none;" fill="none"></path></g><g><path style="fill: none;" stroke="rgb(0, 119, 187)" stroke-width="2px" d="M36.99,-12.219588490153285L38.06999999999999,0.9313217199023143L39.15,14.766541816928765L40.23,28.15378253429043L41.31,36.14059042341478L42.39,30.62906957396291L43.47,32.815505869722415L44.550000000000004,31.70378749944939L45.63,26.298389793408916L46.709999999999994,35.99063988914256L47.79,32.252765271111315L48.87,47.92611399213928L49.95,32.969023786417836L51.03,21.881790120396232L52.11,37.270869619976224L53.190000000000005,51.24814839113928L54.27,58.887790473928504L55.349999999999994,79.29440909913012L56.43,60.75573584852154L57.51,42.19818274341162L58.589999999999996,38.54634717076834L59.67,40.618056616964594L60.75,46.39033573525782L61.830000000000005,61.20023366086208L62.910000000000004,59.46860673114958L63.989999999999995,60.25796620011245L65.07,78.43004401327948L66.15,77.4079398361638L67.23,82.31570537766142L68.31,69.52933990934845L69.39,85.04493322815881L70.47,79.2073969711563L71.55,57.88100146329327L72.63000000000001,72.76904019847933L73.71000000000001,74.5804182641397L74.79,49.05794588143229L75.87,13.955787546463512L76.94999999999999,41.56945869853354L78.03,55.47321073314289L79.11,66.68291580954963L80.19,60.27392787833951L81.27,56.94712259472266L82.35,62.73799283738224L83.42999999999999,54.292786795393724L84.51,53.68233708130063L85.59,73.97633213615698L86.67,76.85775890351952L87.75,73.67801135797161L88.83,70.72445662096239L89.91000000000001,75.9686940868375L90.99000000000001,79.06694873494001L92.07000000000001,79.55576778406L93.14999999999999,79.94450717732062L94.22999999999999,72.49160619875713L95.30999999999999,89.95531070082426L96.39,62.569261246054865L97.47,52.73977990718318L98.55,54.328900335155424L99.63,68.37641748699097L100.71,80.00658557707024L101.79,81.57830086441055L102.87,73.54416214946664L103.95,64.39604987524383L105.03,57.56841391945227L106.11,57.013939696928475L107.19000000000001,63.44286971754913L108.27000000000001,76.13334812069843L109.35000000000001,48.95823299185906L110.42999999999999,93.58984005759878L111.50999999999999,111.8884939416433L112.58999999999999,118.01701262380001L113.67,125.13385126277662L114.75,113.78147834920536L115.83,128.80360936000437L116.91,113.71407449988826L117.99,109.70999342086571L119.07000000000001,128.93682278290814L120.15,139.32456037148623L121.23,103.19753838817799L122.31,59.99481377969421L123.39,80.06888960932822L124.47,95.69489152562016L125.55000000000001,91.74352422271275L126.63,87.35857412689855L127.71,94.32507545280605L128.79,112.72422114177733L129.87,113.28042099472329L130.95,103.75376084035044L132.03,102.66315925501789L133.10999999999999,119.26104601665894L134.19,124.97037055692442L135.27,129.65591623153534L136.35,123.09066710093725L137.43,106.22460463128019L138.51,93.7939036525809L139.59,91.224966344092L140.67000000000002,88.87015212382502L141.75,85.94394586917655L142.83,96.65254687949727L143.91,109.78189504792442L144.99,97.32772590802482L146.07000000000002,90.51837084049649L147.15,96.4575637045054L148.23000000000002,96.1365472731589L149.31,123.97593921759847L150.39000000000001,134.0116699117456L151.47000000000003,139.5264110230848L152.54999999999998,126.8126663854968L153.63,124.96952896079995L154.70999999999998,117.55770188016427L155.79,128.1028607579098L156.86999999999998,124.1071655189637L157.95,116.39232710077921L159.03,124.67702343508932L160.10999999999999,121.17552186814328L161.19,114.65088564407012L162.26999999999998,117.08952611099247L163.35,116.52284523710614L164.43,120.85574101872706L165.51,128.62621023098538L166.59,114.46522785182998L167.67,121.02855028862056L168.75,119.59262140511517L169.83,127.4572044674801L170.91,130.2943668129185L171.99,145.89596120307345L173.07,145.2045460068631L174.15,130.2814483898827L175.23000000000002,124.39613035732987L176.31,129.62556352381526L177.39000000000001,127.44124651213576L178.47,140.01815845059718L179.55,131.97600844782755L180.63000000000002,135.16527562473235L181.71,120.75613630211907L182.79000000000002,131.6885279336819L183.87,140.37711022013997L184.95000000000002,135.06597447115334L186.02999999999997,119.71677878334299L187.10999999999999,110.08786099854593L188.19,125.11224675087468L189.26999999999998,117.3786678893348L190.35,116.47623432203346L191.42999999999998,124.80288455604848L192.51,119.54386695533353L193.59,128.3866850800248L194.67,146.36725218924062L195.75,154.57205802446873L196.82999999999998,146.21696876307826L197.91,130.44257756342432L198.99,134.7219409790693L200.07,139.88393017329275L201.15,145.94030755882613L202.23,138.94147677658555L203.31,145.29758509609817L204.39000000000001,136.0615797575581L205.47,127.561568322147L206.55,115.22072340411205L207.63,130.43968255909843L208.71,144.4819559120854L209.79000000000002,137.7939433464732L210.87,132.0323860408107L211.95000000000002,137.45255722951305L213.03,145.99286304742367L214.11,137.37532887573917L215.19,150.46858415170382L216.27,156.41938733970142L217.35000000000002,147.82107430824885L218.43,137.29901445114734L219.51,131.57871496749337L220.58999999999997,130.19572791128616L221.67,127.41518243648594L222.75,133.1072289858354L223.82999999999998,147.25338846259996L224.91,150.0831255604421L225.98999999999998,142.5158256529612L227.07,147.56083899143275L228.15,156.73331654892274L229.23,161.10126522739114L230.31,136.79252801668136L231.39,142.0836069417092L232.47,146.4453804274894L233.55,151.455036899807L234.63,148.59453354563198L235.71,148.8549500661902L236.79,148.72067551724842L237.87,138.61240685378453L238.95,145.69086016269952L240.03,150.6330822069205L241.11,156.76035069862095L242.19,152.41510552221578L243.27,141.80557061873577L244.35,115.64045433134294L245.43,124.63608608565752L246.51000000000002,130.36239078234988L247.59,137.11228952117003L248.67000000000002,147.63689153306638L249.75,151.4905176655329L250.83,155.34308584046525L251.91000000000003,135.33758605219776L252.99,145.601803751979L254.07,137.84399050008787L255.14999999999998,139.45637420826176L256.22999999999996,149.4608126316368L257.31,159.63404577555366L258.39,163.02095808899173" fill="none"></path></g></g></g></g><g opacity="0.2"><g><g><g><path stroke="rgb(204, 51, 17)" stroke-width="2px" d="M44.955000000000005,56.62278234958649L56.16,77.62902722908899L67.365,81.49333894252777L78.57,79.30742937784927L89.775,59.268925281671386L100.98,122.48120399621817L112.18499999999999,126.55344399122092L123.39,88.1502880499913L134.595,117.14513301849365L145.8,139.04725886308228L157.005,120.49169494555547L168.21,129.09959119099835L179.415,146.78228887227866L190.61999999999998,149.2239312483714L201.82500000000002,159.971421957016L213.03,152.53262496911563L224.235,144.94778238810025L235.44,162.8487935433021L246.64499999999998,161.1897743665255L257.84999999999997,156.47024512290955" style="fill: none;" fill="none"></path></g><g><path style="fill: none;" stroke="rgb(0, 119, 187)" stroke-width="2px" d="M34.83,-81.73815608024597L35.910000000000004,4.06483365939215L36.99,3.5779946125470588L38.06999999999999,16.74423538721524L39.15,33.29288638555087L40.23,47.192517610696655L41.31,47.902526076023406L42.39,22.343139465038604L43.47,36.143387051729064L44.550000000000004,29.999066545413086L45.63,17.972381298358613L46.709999999999994,50.96042454242706L47.79,26.47003944103534L48.87,72.19808170428644L49.95,9.792155027389526L51.03,4.695127102044921L52.11,61.13132284237787L53.190000000000005,72.92259679390833L54.27,70.73550384778241L55.349999999999994,110.94301044940948L56.43,32.00324544539819L57.51,13.415873050689697L58.589999999999996,32.88237544206473L59.67,43.83128583431244L60.75,55.34320015173691L61.830000000000005,84.17059664542859L62.910000000000004,56.78282448878656L63.989999999999995,61.48227705405307L65.07,106.6152824805333L66.15,75.82263625585117L67.23,89.92774738715245L68.31,49.69743008796985L69.39,109.10993218421936L70.47,70.15325977252078L71.55,24.803328284850494L72.63000000000001,95.86069148320418L73.71000000000001,77.3899025641955L74.79,9.47207074898941L75.87,-40.488376067234924L76.94999999999999,84.39882603975443L78.03,77.03821383989774L79.11,84.06939712854532L80.19,50.33345680970413L81.27,51.787179708480835L82.35,71.71975076198578L83.42999999999999,41.19409987559686L84.51,52.73551711669336L85.59,105.4527326272084L86.67,81.3269106241373L87.75,68.74615802214694L88.83,66.14343294730554L89.91000000000001,84.10261342158685L90.99000000000001,83.87240492380582L92.07000000000001,80.31393610514127L93.14999999999999,80.54744990972372L94.22999999999999,60.932004681000336L95.30999999999999,117.04187278564159L96.39,20.09293964275946L97.47,37.494053748937745L98.55,56.793658549969024L99.63,90.1644032735091L100.71,98.0452136351512L101.79,84.01606335089755L102.87,61.08304904057428L103.95,50.207141041755676L105.03,46.978611212510316L106.11,56.15393886199365L107.19000000000001,73.41427138218512L108.27000000000001,95.81653911333817L109.35000000000001,6.809074832842896L110.42999999999999,162.81437346568475L111.50999999999999,140.27007955771225L112.58999999999999,127.52247017163496L113.67,136.17221323343423L114.75,96.17371627917656L115.83,152.1032411318559L116.91,90.3098979821572L117.99,103.49958195136144L119.07000000000001,158.75802750770862L120.15,155.4361533660155L121.23,47.16379000590396L122.31,-7.013493776321411L123.39,111.20419089610759L124.47,119.93113939578716L125.55000000000001,85.6148728957543L126.63,80.55742703951321L127.71,105.13026118278503L128.79,141.261671598141L129.87,114.14309831765982L130.95,88.97771651928241L132.03,100.97161393899184L133.10999999999999,145.00470711634708L134.19,133.82564943570355L135.27,136.923293196238L136.35,112.90783171470348L137.43,80.06499753548547L138.51,74.5136327468432L139.59,87.24049215133374L140.67000000000002,85.2177872107579L141.75,81.4053402497218L142.83,113.26180558938246L143.91,130.1457820030359L144.99,78.0110554053233L146.07000000000002,79.95692216433011L147.15,105.66937304460085L148.23000000000002,95.63864423678471L149.31,167.15540427428024L150.39000000000001,149.57729302919827L151.47000000000003,148.07988703250885L152.54999999999998,107.09338898842151L153.63,122.11078520004565L154.70999999999998,106.06180681632115L155.79,144.45861738461713L156.86999999999998,117.90976065855759L157.95,104.42645526849306L159.03,137.52675652503967L160.10999999999999,115.74462147859427L161.19,104.53104170469136L162.26999999999998,120.87190724336183L163.35,115.6439116367927L164.43,127.57615080246558L165.51,140.67836656020236L166.59,92.50125518211951L167.67,131.20839733343857L168.75,117.36546640212718L169.83,139.65533329890323L170.91,134.69486351196582L171.99,170.09435250208927L173.07,144.1321469270266L174.15,107.1354194329335L175.23000000000002,115.26788198030911L176.31,137.73652108816L177.39000000000001,124.05332624912262L178.47,159.52520553882306L179.55,119.50246966802156L180.63000000000002,140.11189410319696L181.71,98.40726714867812L182.79000000000002,148.6448904642692L183.87,153.8532786644422L184.95000000000002,126.82829453394963L186.02999999999997,95.90986302265753L187.10999999999999,95.15321300579951L188.19,148.4153756728539L189.26999999999998,105.38372924694647L190.35,115.0765414421375L191.42999999999998,137.71768900064322L192.51,111.3870233297348L193.59,142.10207645709698L194.67,174.25547872598355L195.75,167.29787931992456L196.82999999999998,133.25805480663593L197.91,105.97617488641005L198.99,141.359320970682L200.07,147.89028076025156L201.15,155.33387248332684L202.23,128.08614740004907L203.31,155.15603881615857L204.39000000000001,121.73634698757758L205.47,114.37787711620331L206.55,96.07982108226189L207.63,154.0445987994854L208.71,166.26180845957535L209.79000000000002,127.42069936715639L210.87,123.09609307692601L211.95000000000002,145.85935335892896L213.03,159.2390516629586L214.11,124.00935750741225L215.19,170.77649029401633L216.27,165.64920452924875L217.35000000000002,134.48491532068985L218.43,120.97908487686743L219.51,122.70641372754022L220.58999999999997,128.05068676288312L221.67,123.10249965924483L222.75,141.9357093480917L223.82999999999998,169.19437050819397L224.91,154.472105548932L225.98999999999998,130.77878906176642L227.07,155.3857576388579L228.15,170.96001643400925L229.23,167.87604276950543L230.31,99.08918050619272L231.39,150.29017833562997L232.47,153.21058011971988L233.55,159.22511632625873L234.63,144.15783446568707L235.71,149.25886140419885L236.79,148.51241295154279L237.87,122.93427586555481L238.95,156.6696857030575L240.03,158.29856945918155L241.11,166.26386917554416L242.19,145.67554157513837L243.27,125.34996546231783L244.35,75.05782498763156L245.43,138.58849452092096L246.51000000000002,139.24400623028095L247.59,147.58152021811557L248.67000000000002,163.96076404131375L249.75,157.46757044241977L250.83,161.3184977036256L251.91000000000003,104.30864760508904L252.99,161.5218148781703L254.07,125.81146382368527L255.14999999999998,141.95721424542938L256.22999999999996,164.97790079850415L257.31,175.41293799877167L258.39,168.2741282077936" fill="none"></path></g></g></g></g></g></g><g transform="translate(60, 178)" clip-path="url(#clip_1)"><clipPath id="clip_1"><rect width="270" height="22"></rect></clipPath><g><g><line x1="0" y1="0" x2="0" y2="5" style="visibility: inherit;" fill="rgb(0, 0, 0)" stroke="rgb(204, 204, 204)" stroke-width="1px"></line><line x1="33.75" y1="0" x2="33.75" y2="5" style="visibility: inherit;" fill="rgb(0, 0, 0)" stroke="rgb(204, 204, 204)" stroke-width="1px"></line><line x1="67.5" y1="0" x2="67.5" y2="5" style="visibility: inherit;" fill="rgb(0, 0, 0)" stroke="rgb(204, 204, 204)" stroke-width="1px"></line><line x1="101.25" y1="0" x2="101.25" y2="5" style="visibility: inherit;" fill="rgb(0, 0, 0)" stroke="rgb(204, 204, 204)" stroke-width="1px"></line><line x1="135" y1="0" x2="135" y2="5" style="visibility: inherit;" fill="rgb(0, 0, 0)" stroke="rgb(204, 204, 204)" stroke-width="1px"></line><line x1="168.75" y1="0" x2="168.75" y2="5" style="visibility: inherit;" fill="rgb(0, 0, 0)" stroke="rgb(204, 204, 204)" stroke-width="1px"></line><line x1="202.5" y1="0" x2="202.5" y2="5" style="visibility: inherit;" fill="rgb(0, 0, 0)" stroke="rgb(204, 204, 204)" stroke-width="1px"></line><line x1="236.25" y1="0" x2="236.25" y2="5" style="visibility: inherit;" fill="rgb(0, 0, 0)" stroke="rgb(204, 204, 204)" stroke-width="1px"></line><line x1="270" y1="0" x2="270" y2="5" style="visibility: inherit;" fill="rgb(0, 0, 0)" stroke="rgb(204, 204, 204)" stroke-width="1px"></line></g><g transform="translate(0, 8)"><text x="0" y="0" dx="0em" dy="0.95em" style="text-anchor: middle; visibility: hidden; font-family: &quot;Helvetica Neue&quot;, sans-serif; font-size: 12px; font-weight: 200;" fill="rgb(50, 49, 63)" stroke="none" stroke-width="1px">-500</text><text x="33.75" y="0" dx="0em" dy="0.95em" style="text-anchor: middle; visibility: inherit; font-family: &quot;Helvetica Neue&quot;, sans-serif; font-size: 12px; font-weight: 200;" fill="rgb(50, 49, 63)" stroke="none" stroke-width="1px">0</text><text x="67.5" y="0" dx="0em" dy="0.95em" style="text-anchor: middle; visibility: inherit; font-family: &quot;Helvetica Neue&quot;, sans-serif; font-size: 12px; font-weight: 200;" fill="rgb(50, 49, 63)" stroke="none" stroke-width="1px">500</text><text x="101.25" y="0" dx="0em" dy="0.95em" style="text-anchor: middle; visibility: inherit; font-family: &quot;Helvetica Neue&quot;, sans-serif; font-size: 12px; font-weight: 200;" fill="rgb(50, 49, 63)" stroke="none" stroke-width="1px">1k</text><text x="135" y="0" dx="0em" dy="0.95em" style="text-anchor: middle; visibility: inherit; font-family: &quot;Helvetica Neue&quot;, sans-serif; font-size: 12px; font-weight: 200;" fill="rgb(50, 49, 63)" stroke="none" stroke-width="1px">1.5k</text><text x="168.75" y="0" dx="0em" dy="0.95em" style="text-anchor: middle; visibility: inherit; font-family: &quot;Helvetica Neue&quot;, sans-serif; font-size: 12px; font-weight: 200;" fill="rgb(50, 49, 63)" stroke="none" stroke-width="1px">2k</text><text x="202.5" y="0" dx="0em" dy="0.95em" style="text-anchor: middle; visibility: inherit; font-family: &quot;Helvetica Neue&quot;, sans-serif; font-size: 12px; font-weight: 200;" fill="rgb(50, 49, 63)" stroke="none" stroke-width="1px">2.5k</text><text x="236.25" y="0" dx="0em" dy="0.95em" style="text-anchor: middle; visibility: inherit; font-family: &quot;Helvetica Neue&quot;, sans-serif; font-size: 12px; font-weight: 200;" fill="rgb(50, 49, 63)" stroke="none" stroke-width="1px">3k</text><text x="270" y="0" dx="0em" dy="0.95em" style="text-anchor: middle; visibility: hidden; font-family: &quot;Helvetica Neue&quot;, sans-serif; font-size: 12px; font-weight: 200;" fill="rgb(50, 49, 63)" stroke="none" stroke-width="1px">3.5k</text></g><line x1="0" y1="0" x2="270" y2="0" fill="rgb(0, 0, 0)" stroke="rgb(204, 204, 204)" stroke-width="1px"></line></g></g></g></g></svg>