<svg viewBox="0 0 330 200" xmlns="http://www.w3.org/2000/svg"><g><g><g><g><g><line x1="70" y1="178" x2="65" y2="178" style="visibility: inherit;" fill="rgb(0, 0, 0)" stroke="rgb(204, 204, 204)" stroke-width="1px"></line><line x1="70" y1="164.30769230769232" x2="65" y2="164.30769230769232" style="visibility: inherit;" fill="rgb(0, 0, 0)" stroke="rgb(204, 204, 204)" stroke-width="1px"></line><line x1="70" y1="150.6153846153846" x2="65" y2="150.6153846153846" style="visibility: inherit;" fill="rgb(0, 0, 0)" stroke="rgb(204, 204, 204)" stroke-width="1px"></line><line x1="70" y1="136.92307692307693" x2="65" y2="136.92307692307693" style="visibility: inherit;" fill="rgb(0, 0, 0)" stroke="rgb(204, 204, 204)" stroke-width="1px"></line><line x1="70" y1="123.23076923076924" x2="65" y2="123.23076923076924" style="visibility: inherit;" fill="rgb(0, 0, 0)" stroke="rgb(204, 204, 204)" stroke-width="1px"></line><line x1="70" y1="109.53846153846155" x2="65" y2="109.53846153846155" style="visibility: inherit;" fill="rgb(0, 0, 0)" stroke="rgb(204, 204, 204)" stroke-width="1px"></line><line x1="70" y1="95.84615384615385" x2="65" y2="95.84615384615385" style="visibility: inherit;" fill="rgb(0, 0, 0)" stroke="rgb(204, 204, 204)" stroke-width="1px"></line><line x1="70" y1="82.15384615384616" x2="65" y2="82.15384615384616" style="visibility: inherit;" fill="rgb(0, 0, 0)" stroke="rgb(204, 204, 204)" stroke-width="1px"></line><line x1="70" y1="68.46153846153848" x2="65" y2="68.46153846153848" style="visibility: inherit;" fill="rgb(0, 0, 0)" stroke="rgb(204, 204, 204)" stroke-width="1px"></line><line x1="70" y1="54.769230769230774" x2="65" y2="54.769230769230774" style="visibility: inherit;" fill="rgb(0, 0, 0)" stroke="rgb(204, 204, 204)" stroke-width="1px"></line><line x1="70" y1="41.076923076923066" x2="65" y2="41.076923076923066" style="visibility: inherit;" fill="rgb(0, 0, 0)" stroke="rgb(204, 204, 204)" stroke-width="1px"></line><line x1="70" y1="27.38461538461536" x2="65" y2="27.38461538461536" style="visibility: inherit;" fill="rgb(0, 0, 0)" stroke="rgb(204, 204, 204)" stroke-width="1px"></line><line x1="70" y1="13.692307692307708" x2="65" y2="13.692307692307708" style="visibility: inherit;" fill="rgb(0, 0, 0)" stroke="rgb(204, 204, 204)" stroke-width="1px"></line><line x1="70" y1="0" x2="65" y2="0" style="visibility: inherit;" fill="rgb(0, 0, 0)" stroke="rgb(204, 204, 204)" stroke-width="1px"></line></g><g transform="translate(60, 0)"><text x="0" y="178" dx="0em" dy="0.3em" style="text-anchor: end; visibility: hidden; font-family: &quot;Helvetica Neue&quot;, sans-serif; font-size: 12px; font-weight: 200;" fill="rgb(50, 49, 63)" stroke="none" stroke-width="1px">-1e-6</text><text x="0" y="164.30769230769232" dx="0em" dy="0.3em" style="text-anchor: end; visibility: inherit; font-family: &quot;Helvetica Neue&quot;, sans-serif; font-size: 12px; font-weight: 200;" fill="rgb(50, 49, 63)" stroke="none" stroke-width="1px">0</text><text x="0" y="150.6153846153846" dx="0em" dy="0.3em" style="text-anchor: end; visibility: hidden; font-family: &quot;Helvetica Neue&quot;, sans-serif; font-size: 12px; font-weight: 200;" fill="rgb(50, 49, 63)" stroke="none" stroke-width="1px">1e-6</text><text x="0" y="136.92307692307693" dx="0em" dy="0.3em" style="text-anchor: end; visibility: inherit; font-family: &quot;Helvetica Neue&quot;, sans-serif; font-size: 12px; font-weight: 200;" fill="rgb(50, 49, 63)" stroke="none" stroke-width="1px">2e-6</text><text x="0" y="123.23076923076924" dx="0em" dy="0.3em" style="text-anchor: end; visibility: hidden; font-family: &quot;Helvetica Neue&quot;, sans-serif; font-size: 12px; font-weight: 200;" fill="rgb(50, 49, 63)" stroke="none" stroke-width="1px">3e-6</text><text x="0" y="109.53846153846155" dx="0em" dy="0.3em" style="text-anchor: end; visibility: inherit; font-family: &quot;Helvetica Neue&quot;, sans-serif; font-size: 12px; font-weight: 200;" fill="rgb(50, 49, 63)" stroke="none" stroke-width="1px">4e-6</text><text x="0" y="95.84615384615385" dx="0em" dy="0.3em" style="text-anchor: end; visibility: hidden; font-family: &quot;Helvetica Neue&quot;, sans-serif; font-size: 12px; font-weight: 200;" fill="rgb(50, 49, 63)" stroke="none" stroke-width="1px">5e-6</text><text x="0" y="82.15384615384616" dx="0em" dy="0.3em" style="text-anchor: end; visibility: inherit; font-family: &quot;Helvetica Neue&quot;, sans-serif; font-size: 12px; font-weight: 200;" fill="rgb(50, 49, 63)" stroke="none" stroke-width="1px">6e-6</text><text x="0" y="68.46153846153848" dx="0em" dy="0.3em" style="text-anchor: end; visibility: hidden; font-family: &quot;Helvetica Neue&quot;, sans-serif; font-size: 12px; font-weight: 200;" fill="rgb(50, 49, 63)" stroke="none" stroke-width="1px">7e-6</text><text x="0" y="54.769230769230774" dx="0em" dy="0.3em" style="text-anchor: end; visibility: inherit; font-family: &quot;Helvetica Neue&quot;, sans-serif; font-size: 12px; font-weight: 200;" fill="rgb(50, 49, 63)" stroke="none" stroke-width="1px">8e-6</text><text x="0" y="41.076923076923066" dx="0em" dy="0.3em" style="text-anchor: end; visibility: hidden; font-family: &quot;Helvetica Neue&quot;, sans-serif; font-size: 12px; font-weight: 200;" fill="rgb(50, 49, 63)" stroke="none" stroke-width="1px">9e-6</text><text x="0" y="27.38461538461536" dx="0em" dy="0.3em" style="text-anchor: end; visibility: inherit; font-family: &quot;Helvetica Neue&quot;, sans-serif; font-size: 12px; font-weight: 200;" fill="rgb(50, 49, 63)" stroke="none" stroke-width="1px">1e-5</text><text x="0" y="13.692307692307708" dx="0em" dy="0.3em" style="text-anchor: end; visibility: hidden; font-family: &quot;Helvetica Neue&quot;, sans-serif; font-size: 12px; font-weight: 200;" fill="rgb(50, 49, 63)" stroke="none" stroke-width="1px">1.1e-5</text><text x="0" y="0" dx="0em" dy="0.3em" style="text-anchor: end; visibility: hidden; font-family: &quot;Helvetica Neue&quot;, sans-serif; font-size: 12px; font-weight: 200;" fill="rgb(50, 49, 63)" stroke="none" stroke-width="1px">1.2e-5</text></g><line x1="70" y1="0" x2="70" y2="178" fill="rgb(0, 0, 0)" stroke="rgb(204, 204, 204)" stroke-width="1px"></line></g></g><g transform="translate(70, 0)" clip-path="url(#clip_0)"><clipPath id="clip_0"><rect width="260" height="178"></rect></clipPath><g><g><g><line x1="0" y1="0" x2="0" y2="178" fill="rgb(0, 0, 0)" stroke="rgb(60, 60, 60)" stroke-width="1px" opacity="0.25"></line><line x1="32.5" y1="0" x2="32.5" y2="178" fill="rgb(0, 0, 0)" stroke="rgb(60, 60, 60)" stroke-width="1px" opacity="0.25"></line><line x1="65" y1="0" x2="65" y2="178" fill="rgb(0, 0, 0)" stroke="rgb(60, 60, 60)" stroke-width="1px" opacity="0.25"></line><line x1="97.5" y1="0" x2="97.5" y2="178" fill="rgb(0, 0, 0)" stroke="rgb(60, 60, 60)" stroke-width="1px" opacity="0.25"></line><line x1="130" y1="0" x2="130" y2="178" fill="rgb(0, 0, 0)" stroke="rgb(60, 60, 60)" stroke-width="1px" opacity="0.25"></line><line x1="162.5" y1="0" x2="162.5" y2="178" fill="rgb(0, 0, 0)" stroke="rgb(60, 60, 60)" stroke-width="1px" opacity="0.25"></line><line x1="195" y1="0" x2="195" y2="178" fill="rgb(0, 0, 0)" stroke="rgb(60, 60, 60)" stroke-width="1px" opacity="0.25"></line><line x1="227.5" y1="0" x2="227.5" y2="178" fill="rgb(0, 0, 0)" stroke="rgb(60, 60, 60)" stroke-width="1px" opacity="0.25"></line><line x1="260" y1="0" x2="260" y2="178" fill="rgb(0, 0, 0)" stroke="rgb(60, 60, 60)" stroke-width="1px" opacity="0.25"></line></g><g><line x1="0" y1="178" x2="260" y2="178" fill="rgb(0, 0, 0)" stroke="rgb(60, 60, 60)" stroke-width="1px" opacity="0.25"></line><line x1="0" y1="164.30769230769232" x2="260" y2="164.30769230769232" fill="rgb(0, 0, 0)" stroke="rgb(60, 60, 60)" stroke-width="1px" opacity="0.25"></line><line x1="0" y1="150.6153846153846" x2="260" y2="150.6153846153846" fill="rgb(0, 0, 0)" stroke="rgb(60, 60, 60)" stroke-width="1px" opacity="0.25"></line><line x1="0" y1="136.92307692307693" x2="260" y2="136.92307692307693" fill="rgb(0, 0, 0)" stroke="rgb(60, 60, 60)" stroke-width="1px" opacity="0.25"></line><line x1="0" y1="123.23076923076924" x2="260" y2="123.23076923076924" fill="rgb(0, 0, 0)" stroke="rgb(60, 60, 60)" stroke-width="1px" opacity="0.25"></line><line x1="0" y1="109.53846153846155" x2="260" y2="109.53846153846155" fill="rgb(0, 0, 0)" stroke="rgb(60, 60, 60)" stroke-width="1px" opacity="0.25"></line><line x1="0" y1="95.84615384615385" x2="260" y2="95.84615384615385" fill="rgb(0, 0, 0)" stroke="rgb(60, 60, 60)" stroke-width="1px" opacity="0.25"></line><line x1="0" y1="82.15384615384616" x2="260" y2="82.15384615384616" fill="rgb(0, 0, 0)" stroke="rgb(60, 60, 60)" stroke-width="1px" opacity="0.25"></line><line x1="0" y1="68.46153846153848" x2="260" y2="68.46153846153848" fill="rgb(0, 0, 0)" stroke="rgb(60, 60, 60)" stroke-width="1px" opacity="0.25"></line><line x1="0" y1="54.769230769230774" x2="260" y2="54.769230769230774" fill="rgb(0, 0, 0)" stroke="rgb(60, 60, 60)" stroke-width="1px" opacity="0.25"></line><line x1="0" y1="41.076923076923066" x2="260" y2="41.076923076923066" fill="rgb(0, 0, 0)" stroke="rgb(60, 60, 60)" stroke-width="1px" opacity="0.25"></line><line x1="0" y1="27.38461538461536" x2="260" y2="27.38461538461536" fill="rgb(0, 0, 0)" stroke="rgb(60, 60, 60)" stroke-width="1px" opacity="0.25"></line><line x1="0" y1="13.692307692307708" x2="260" y2="13.692307692307708" fill="rgb(0, 0, 0)" stroke="rgb(60, 60, 60)" stroke-width="1px" opacity="0.25"></line><line x1="0" y1="0" x2="260" y2="0" fill="rgb(0, 0, 0)" stroke="rgb(60, 60, 60)" stroke-width="1px" opacity="0.25"></line></g></g></g><g><g><line x1="0" y1="164.30769230769232" x2="260" y2="164.30769230769232" fill="rgb(0, 0, 0)" stroke="rgb(153, 153, 153)" stroke-width="1.5px"></line></g></g><g><g><line x1="32.5" y1="0" x2="32.5" y2="178" fill="rgb(0, 0, 0)" stroke="rgb(153, 153, 153)" stroke-width="1.5px"></line></g></g><g><g><g><g><g><path style="fill: none;" stroke="rgb(255, 112, 67)" stroke-width="2px" d="M33.54,160.08898141322481L34.58,158.06376421657643L35.620000000000005,155.7944805923333L36.66,153.30851203348368L37.699999999999996,150.63833812380793L38.739999999999995,147.8176681643214L39.78,144.87834398324014L40.82,141.84836289224415L41.86,138.7509814948256L42.9,135.60465361906805L43.940000000000005,132.4234865906123L44.98,129.21794248314103L46.019999999999996,125.9955847694751L47.059999999999995,122.76177294363376L48.1,119.52023939704094L49.14,116.27354666446354L50.18,113.02343324812892L51.22,109.77106680667387L52.260000000000005,106.51722493029676L53.3,103.26242168236892L54.339999999999996,100.00699477972793L55.379999999999995,96.75116488063648L56.42,93.49507791473698L57.46,90.23882340138258L58.5,86.98246166168073L59.54,83.72603147059594L60.580000000000005,80.4695576801913L61.62,77.21305617696385L62.66,73.95653709201889L63.699999999999996,70.70000687212904L64.74,67.44346961147065L65.78,64.1869279054246L66.82000000000001,60.93038583730939L67.86,57.673838606600455L68.9,54.41729308164746L69.94,51.160743689692865L70.98,47.90419681453349L72.02000000000001,44.647646579662705L73.06,41.39109917863982L74.1,38.13454861591484L75.14,34.878001010613985L76.17999999999999,32.020380197767764L77.22,30.602086741345744L78.25999999999999,30.05890919811796L79.3,30.047797248115614L80.34,30.360181178665783L81.38,30.869255486161506L82.42,31.49791266122378L83.46000000000001,32.199276219766716L84.5,32.94485014107599L85.54,33.717299081341395L86.58,34.506088033133636L87.62,35.304816593543165L88.66000000000001,36.10958355438473L89.69999999999999,36.918026744297265L90.74,37.72870019987738L91.78,38.54072965698353L92.82,39.35358844462547L93.86,40.16694658362536L94.89999999999999,40.980608328250895L95.94,41.794459546704786L96.98,42.608421083638405L98.02,43.42245457581558L99.06,44.236526935173L100.10000000000001,45.05062292577597L101.14,45.86473816578413L102.18,46.67886022782275L103.22,47.49298643765596L104.26,48.30712005095606L105.30000000000001,49.121253283956236L106.33999999999999,49.93538628573404L107.38,50.749524028536484L108.42,51.56365977227405L109.46,52.37779918218803L110.5,53.19193593952943L111.53999999999999,54.00607108410669L112.58,54.82021012973121L113.62,55.63434666558463L114.66,56.44848167549716L115.7,57.262620639245554L116.74000000000001,58.076757125318295L117.78,58.89089454576809L118.82000000000001,59.7050325343192L119.86,60.51916842747198L120.9,61.33330548742647L121.94,62.14744325679642L122.97999999999999,62.96158145749098L124.02,63.77571747962698L125.06,64.58985461800327L126.1,65.40399243505367L127.14,66.21813066473793L128.18,67.03226670449966L129.22,67.84640385359239L130.26,68.66054167715842L131.3,69.47467991080416L132.34,70.28881595297449L133.38,71.10295310353165L134.42000000000002,71.91709092798801L135.46,72.73122672137119L136.5,73.54536372066576L137.54000000000002,74.3595014531545L138.58,75.17363963142526L139.62,75.98777563992756L140.66,76.80191277001458L141.70000000000002,77.61605058202511L142.74,78.43018880864516L143.78,79.2443248465438L144.82000000000002,80.05846199450382L145.86,80.87259981738113L146.89999999999998,81.68673805060814L147.94,82.50087409252386L148.98,83.31501124292623L150.01999999999998,84.1291490672885L151.06,84.94328486061443L152.1,85.75742185987423L153.14,86.57155959234179L154.18,87.38569777059972L155.22,88.1998337790942L156.26,89.01397090917646L157.29999999999998,89.82810872118411L158.34,90.64224694780238L159.38,91.45638298569997L160.42,92.27052013365933L161.46,93.08465795653623L162.5,93.89879618976302L163.54,94.7129322316786L164.58,95.52706938208087L165.62,96.34120720644309L166.66,97.155342999769L167.70000000000002,97.96947999902878L168.74,98.78361773149634L169.78,99.59775590975423L170.82,100.41189191824871L171.86,101.22602904833099L172.9,102.04016686033862L173.94,102.85430508695688L174.98000000000002,103.66844112485448L176.02,104.48257827281384L177.06,105.29671609569074L178.10000000000002,106.11085432891753L179.14,106.9249903708331L180.17999999999998,107.73912752123537L181.22,108.5532653455976L182.26,109.36740357972744L183.29999999999998,110.18153962219208L184.34,110.99567677292819L185.38,111.8098133770914L186.42,112.62395086934026L187.45999999999998,113.43808768114322L188.5,114.25222529963702L189.54,115.06636218819693L190.57999999999998,115.88049985335896L191.62,116.69463677029313L192.66,117.50877445270672L193.7,118.32291138012984L194.74,119.13704906892073L195.78,119.95118600022121L196.82,120.76532369136955L197.86,121.57946062410338L198.9,122.39359831612319L199.94,123.20773524938687L200.98000000000002,124.02187172132685L202.02,124.83600913318395L203.06,125.65014589610875L204.1,126.46428348488465L205.14000000000001,127.27842035537606L206.18,128.09255800955242L207.22,128.90669491980734L208.26000000000002,129.72083259815992L209.3,130.53496952311394L210.34,131.34910721040362L211.38,132.1632441407914L212.42,132.97738183138478L213.45999999999998,133.79151876378123L214.5,134.60565645559586L215.54,135.41979338873483L216.57999999999998,136.23392986059898L217.62,137.04806727240998L218.66,137.86220464550772L219.7,138.6763419950678L220.73999999999998,139.49047933031693L221.78,140.30461665686505L222.82,141.11875397812295L223.85999999999999,141.9328906859634L224.9,142.74702763104705L225.94,143.56116472037453L226.98,144.37530189740227L228.02,145.18943912775177L229.06,146.00357639052092L230.1,146.81771367300118L231.14000000000001,147.63185096746582L232.18,148.44598826921697L233.22,149.2601255753983L234.26000000000002,150.0742628842732L235.3,150.88840019478576L236.34,151.70253720119354L237.38,152.5166743278061L238.42000000000002,153.3308115275032L239.46,154.14494877163565L240.5,154.9590860427848L241.54000000000002,155.77322333036017L242.58,156.58736047537235L243.62,157.4014976862564L244.66,158.21563493719054L245.7,159.02977221247514L246.73999999999998,159.84390942628968L247.78,160.65804660273042L248.82,161.47218379458548" fill="none"></path></g></g></g></g><g opacity="0.2"><g><g><g><path style="fill: none;" stroke="rgb(255, 112, 67)" stroke-width="2px" d="M33.54,160.08898141322481L34.58,156.83243216101422L35.620000000000005,153.57588368712123L36.66,150.31933443491064L37.699999999999996,147.06278518270008L38.739999999999995,143.80623748712466L39.78,140.54968823491407L40.82,137.2931389827035L41.86,134.03658973049292L42.9,130.78004047828233L43.940000000000005,127.52349122607177L44.98,124.26694508713152L46.019999999999996,121.01039583492093L47.059999999999995,117.75384658271037L48.1,114.49729733049978L49.14,111.2407480782892L50.18,107.98419882607863L51.22,104.72764957386805L52.260000000000005,101.47110032165747L53.3,98.21455106944688L54.339999999999996,94.95800181723631L55.379999999999995,91.70145256502573L56.42,88.44490953935579L57.46,85.18836028714523L58.5,81.93181103493464L59.54,78.67526178272406L60.580000000000005,75.41871253051349L61.62,72.1621632783029L62.66,68.90561402609231L63.699999999999996,65.64906477388175L64.74,62.39251552167116L65.78,59.13596626946057L66.82000000000001,55.879423243790654L67.86,52.622867765039416L68.9,49.3663247393695L69.94,46.109769260618265L70.98,42.85322623494832L72.02000000000001,39.59667075619711L73.06,36.34012773052717L74.1,33.08357225177596L75.14,29.82702922610602L76.17999999999999,27.588152004370045L77.22,28.402284647517206L78.25999999999999,29.216429743745664L79.3,30.030562386892797L80.34,30.844695030039958L81.38,31.658840126268416L82.42,32.47297276941558L83.46000000000001,33.28710541256274L84.5,34.101250508791196L85.54,34.91538315193836L86.58,35.72951579508552L87.62,36.543660891313976L88.66000000000001,37.35779353446114L89.69999999999999,38.171938630689596L90.74,38.98607127383673L91.78,39.80020391698389L92.82,40.61434901321235L93.86,41.42848165635951L94.89999999999999,42.24261429950667L95.94,43.05675939573513L96.98,43.87089203888229L98.02,44.68503713511075L99.06,45.49916977825791L100.10000000000001,46.31330242140504L101.14,47.1274475176335L102.18,47.94158016078066L103.22,48.75571280392782L104.26,49.56985790015628L105.30000000000001,50.38399054330344L106.33999999999999,51.1981231864506L107.38,52.01226828267906L108.42,52.82640092582622L109.46,53.64054602205468L110.5,54.45467866520181L111.53999999999999,55.26881130834897L112.58,56.08295640457743L113.62,56.89708904772459L114.66,57.71122169087175L115.7,58.52536678710021L116.74000000000001,59.33949943024737L117.78,60.15363829993518L118.82000000000001,60.96777716962299L119.86,61.78190981277015L120.9,62.59604868245793L121.94,63.41018755214574L122.97999999999999,64.22432642183355L124.02,65.03845906498071L125.06,65.85259793466852L126.1,66.66673680435633L127.14,67.48087567404414L128.18,68.2950083171913L129.22,69.10914718687911L130.26,69.92328605656692L131.3,70.73742492625473L132.34,71.55155756940187L133.38,72.36569643908967L134.42000000000002,73.17983530877748L135.46,73.99396795192466L136.5,74.80810682161247L137.54000000000002,75.62224569130026L138.58,76.43638456098807L139.62,77.25051720413524L140.66,78.06465607382304L141.70000000000002,78.87879494351085L142.74,79.69293381319866L143.78,80.50706645634583L144.82000000000002,81.32120532603363L145.86,82.13534419572143L146.89999999999998,82.94948306540924L147.94,83.76361570855639L148.98,84.5777545782442L150.01999999999998,85.391893447932L151.06,86.20602609107917L152.1,87.02016496076698L153.14,87.83430383045479L154.18,88.6484427001426L155.22,89.46257534328974L156.26,90.27671421297755L157.29999999999998,91.09085308266536L158.34,91.90499195235317L159.38,92.71912459550033L160.42,93.53326346518813L161.46,94.34740233487594L162.5,95.16154120456375L163.54,95.97567384771091L164.58,96.78981271739872L165.62,97.60395158708653L166.66,98.41808423023367L167.70000000000002,99.23222309992148L168.74,100.0463619696093L169.78,100.8605008392971L170.82,101.67463348244425L171.86,102.48877235213206L172.9,103.30291122181987L173.94,104.11705009150768L174.98000000000002,104.93118273465484L176.02,105.74532160434264L177.06,106.55946047403044L178.10000000000002,107.37359934371825L179.14,108.18773198686542L180.17999999999998,109.00187085655323L181.22,109.81600972624103L182.26,110.63014859592883L183.29999999999998,111.44428123907599L184.34,112.2584201087638L185.38,113.07255586518129L186.42,113.88669473486908L187.45999999999998,114.70083049128657L188.5,115.51496936097438L189.54,116.32910511739186L190.57999999999998,117.14324398707967L191.62,117.95737974349714L192.66,118.77151861318495L193.7,119.58565436960244L194.74,120.39979323929023L195.78,121.21392899570773L196.82,122.02806786539554L197.86,122.84220362181301L198.9,123.65634249150082L199.94,124.4704782479183L200.98000000000002,125.2846140043358L202.02,126.09875287402359L203.06,126.91288863044107L204.1,127.72702750012888L205.14000000000001,128.54116325654635L206.18,129.35530212623416L207.22,130.16943788265166L208.26000000000002,130.98357675233945L209.3,131.79771250875694L210.34,132.61185137844475L211.38,133.42598713486223L212.42,134.24012600455004L213.45999999999998,135.0542617609675L214.5,135.86840063065534L215.54,136.68253638707282L216.57999999999998,137.4966721434903L217.62,138.3108110131781L218.66,139.12494832623074L219.7,139.9390856392834L220.73999999999998,140.75322295233605L221.78,141.5673602653887L222.82,142.38149757844133L223.85999999999999,143.1956333348588L224.9,144.00977064791147L225.94,144.8239079609641L226.98,145.63804527401675L228.02,146.4521825870694L229.06,147.26631990012203L230.1,148.08045721317467L231.14000000000001,148.8945945262273L232.18,149.70873183927995L233.22,150.52286915233262L234.26000000000002,151.33700646538526L235.3,152.1511437784379L236.34,152.96528031317297L237.38,153.7794176262256L238.42000000000002,154.59355493927825L239.46,155.4076922523309L240.5,156.22182956538353L241.54000000000002,157.03596687843617L242.58,157.85010380233004L243.62,158.66424111538268L244.66,159.47837842843532L245.7,160.29251574148796L246.73999999999998,161.10665285996123L247.78,161.92078997843447L248.82,162.7349271941974" fill="none"></path></g></g></g></g></g></g><g transform="translate(70, 178)" clip-path="url(#clip_1)"><clipPath id="clip_1"><rect width="260" height="22"></rect></clipPath><g><g><line x1="0" y1="0" x2="0" y2="5" style="visibility: inherit;" fill="rgb(0, 0, 0)" stroke="rgb(204, 204, 204)" stroke-width="1px"></line><line x1="32.5" y1="0" x2="32.5" y2="5" style="visibility: inherit;" fill="rgb(0, 0, 0)" stroke="rgb(204, 204, 204)" stroke-width="1px"></line><line x1="65" y1="0" x2="65" y2="5" style="visibility: inherit;" fill="rgb(0, 0, 0)" stroke="rgb(204, 204, 204)" stroke-width="1px"></line><line x1="97.5" y1="0" x2="97.5" y2="5" style="visibility: inherit;" fill="rgb(0, 0, 0)" stroke="rgb(204, 204, 204)" stroke-width="1px"></line><line x1="130" y1="0" x2="130" y2="5" style="visibility: inherit;" fill="rgb(0, 0, 0)" stroke="rgb(204, 204, 204)" stroke-width="1px"></line><line x1="162.5" y1="0" x2="162.5" y2="5" style="visibility: inherit;" fill="rgb(0, 0, 0)" stroke="rgb(204, 204, 204)" stroke-width="1px"></line><line x1="195" y1="0" x2="195" y2="5" style="visibility: inherit;" fill="rgb(0, 0, 0)" stroke="rgb(204, 204, 204)" stroke-width="1px"></line><line x1="227.5" y1="0" x2="227.5" y2="5" style="visibility: inherit;" fill="rgb(0, 0, 0)" stroke="rgb(204, 204, 204)" stroke-width="1px"></line><line x1="260" y1="0" x2="260" y2="5" style="visibility: inherit;" fill="rgb(0, 0, 0)" stroke="rgb(204, 204, 204)" stroke-width="1px"></line></g><g transform="translate(0, 8)"><text x="0" y="0" dx="0em" dy="0.95em" style="text-anchor: middle; visibility: hidden; font-family: &quot;Helvetica Neue&quot;, sans-serif; font-size: 12px; font-weight: 200;" fill="rgb(50, 49, 63)" stroke="none" stroke-width="1px">-500</text><text x="32.5" y="0" dx="0em" dy="0.95em" style="text-anchor: middle; visibility: inherit; font-family: &quot;Helvetica Neue&quot;, sans-serif; font-size: 12px; font-weight: 200;" fill="rgb(50, 49, 63)" stroke="none" stroke-width="1px">0</text><text x="65" y="0" dx="0em" dy="0.95em" style="text-anchor: middle; visibility: inherit; font-family: &quot;Helvetica Neue&quot;, sans-serif; font-size: 12px; font-weight: 200;" fill="rgb(50, 49, 63)" stroke="none" stroke-width="1px">500</text><text x="97.5" y="0" dx="0em" dy="0.95em" style="text-anchor: middle; visibility: inherit; font-family: &quot;Helvetica Neue&quot;, sans-serif; font-size: 12px; font-weight: 200;" fill="rgb(50, 49, 63)" stroke="none" stroke-width="1px">1k</text><text x="130" y="0" dx="0em" dy="0.95em" style="text-anchor: middle; visibility: inherit; font-family: &quot;Helvetica Neue&quot;, sans-serif; font-size: 12px; font-weight: 200;" fill="rgb(50, 49, 63)" stroke="none" stroke-width="1px">1.5k</text><text x="162.5" y="0" dx="0em" dy="0.95em" style="text-anchor: middle; visibility: inherit; font-family: &quot;Helvetica Neue&quot;, sans-serif; font-size: 12px; font-weight: 200;" fill="rgb(50, 49, 63)" stroke="none" stroke-width="1px">2k</text><text x="195" y="0" dx="0em" dy="0.95em" style="text-anchor: middle; visibility: inherit; font-family: &quot;Helvetica Neue&quot;, sans-serif; font-size: 12px; font-weight: 200;" fill="rgb(50, 49, 63)" stroke="none" stroke-width="1px">2.5k</text><text x="227.5" y="0" dx="0em" dy="0.95em" style="text-anchor: middle; visibility: inherit; font-family: &quot;Helvetica Neue&quot;, sans-serif; font-size: 12px; font-weight: 200;" fill="rgb(50, 49, 63)" stroke="none" stroke-width="1px">3k</text><text x="260" y="0" dx="0em" dy="0.95em" style="text-anchor: middle; visibility: hidden; font-family: &quot;Helvetica Neue&quot;, sans-serif; font-size: 12px; font-weight: 200;" fill="rgb(50, 49, 63)" stroke="none" stroke-width="1px">3.5k</text></g><line x1="0" y1="0" x2="260" y2="0" fill="rgb(0, 0, 0)" stroke="rgb(204, 204, 204)" stroke-width="1px"></line></g></g></g></g></svg>